<svg width="580" height="400" xmlns="http://www.w3.org/2000/svg">
 <!-- Created with Method Draw - http://github.com/duopixel/Method-Draw/ -->

 <g>
  <title>background</title>
  <rect fill="none" id="canvas_background" height="402" width="582" y="-1" x="-1"/>
  <g display="none" overflow="visible" y="0" x="0" height="100%" width="100%" id="canvasGrid">
   <rect fill="url(#gridpattern)" stroke-width="0" y="0" x="0" height="100%" width="100%"/>
  </g>
 </g>
 <g>
  <title>Layer 1</title>
  <defs>
   <linearGradient y2="1" x2="0.499995" y1="0" x1="0.499995" id="svg_10">
    <stop stop-color="#FF1C1F"/>
    <stop stop-color="#FF4A04" offset="1"/>
   </linearGradient>
   <linearGradient y2="0.999911" x2="0.735471" y1="0.415971" x1="0.162978" id="svg_9">
    <stop stop-color="#BD0000"/>
    <stop stop-opacity="0" stop-color="#BD0000" offset="0.770833"/>
   </linearGradient>
   <linearGradient y2="1" x2="0.499999" y1="0" x1="0.499999" id="svg_8">
    <stop stop-color="#FF1C1F"/>
    <stop stop-color="#FF4A04" offset="1"/>
   </linearGradient>
   <linearGradient y2="0.695796" x2="0.500015" y1="0" x1="0.500015" id="svg_7">
    <stop stop-color="#FF9825"/>
    <stop stop-opacity="0" stop-color="#FF9825" offset="1"/>
   </linearGradient>
  </defs>
  <g id="svg_34">
   <path stroke="null" id="svg_12" fill="url(#svg_10)" d="m236.131464,291.003844l-0.041628,0c-0.040086,-0.000154 -0.080172,-0.000308 -0.120258,-0.000925c-0.007709,-0.000617 -0.015418,-0.000617 -0.023127,-0.000771l0.023127,0.000771c-3.396526,-0.045482 -6.654293,-1.924441 -8.305531,-5.160623c-0.001542,-0.003392 -0.003084,-0.006784 -0.004625,-0.01033l-13.134365,-25.81884l10.628983,-20.876224l10.955839,21.538415l23.371738,-45.941445l-30.513231,0.000154c-5.226611,0 -9.464945,-4.238026 -9.464945,-9.465993l0,-0.031591c0,-5.227906 4.238334,-9.465947 9.464945,-9.465947l45.715113,0c5.226611,0 9.464945,4.238041 9.464945,9.465947l0,0.065001c0.072463,1.584095 -0.251309,3.208306 -1.020654,4.72262l-38.56437,75.807902l-0.006167,0.01033c-1.646614,3.228781 -4.893588,5.106661 -8.282405,5.160314c-0.007709,-0.000463 -0.013876,-0.000308 -0.021585,-0.000154l0.021585,0.000154c-0.047795,0.000771 -0.09559,0.001079 -0.143385,0.001233z" clip-rule="evenodd" fill-rule="evenodd"/>
   <path stroke="null" id="svg_13" fill="url(#svg_9)" d="m230.599582,195.770496l39.079322,0l-10.294419,18.963531l-28.784903,0l0,-18.963531z" clip-rule="evenodd" fill-rule="evenodd"/>
   <path stroke="null" id="svg_15" fill="url(#svg_7)" d="m246.948544,195.770496c-1.864004,0.071816 -3.618541,0.60308 -5.26053,1.593777c-1.578776,0.951074 -2.943245,2.487836 -4.096491,4.610287l-0.126425,0.237371l-27.132122,53.335758l-16.447635,-9.439043l22.576183,-44.380616c1.86092,-3.655405 5.613596,-5.957534 9.714712,-5.957534l20.772308,0z" clip-rule="evenodd" fill-rule="evenodd"/>
   <g stroke="null" id="svg_31">
    <g stroke="null" id="svg_32">
     <path stroke="null" id="svg_22" fill="#ED6C47" d="m216.862324,191.916706c-13.516521,0.039525 -26.468143,5.426464 -36.02577,14.984149c-9.557685,9.557626 -14.944624,22.509249 -14.984149,36.02577l64.625778,13.615859l-13.615859,-64.625778z"/>
     <path stroke="null" id="svg_23" fill="#FF8F6B" d="m216.899634,191.916706c13.512673,0.040983 26.459865,5.429496 36.011254,14.987938c9.551389,9.558384 14.93104,22.509249 14.962521,36.02198l-25.504959,17.335794l-25.468815,-17.335794l0,-51.009919z"/>
     <path stroke="null" id="svg_24" fill="#D35230" d="m216.862324,293.936544c13.516754,-0.039642 26.468027,-5.426289 36.025828,-14.984091c9.557801,-9.557801 14.944449,-22.509074 14.984091,-36.025828l-102.019838,0c0.039525,13.516754 5.426464,26.468027 14.984149,36.025828c9.557626,9.557801 22.509249,14.944449 36.02577,14.984091l0,0z"/>
     <path stroke="null" id="svg_25" fill="black" d="m212.005013,210.134535l-34.108846,0c-8.328783,9.813609 -12.6128,22.427866 -11.983017,35.283707c0.629783,12.856248 6.126146,24.991362 15.374156,33.94404l30.717707,0c1.287199,-0.004081 2.520764,-0.517095 3.430781,-1.427112c0.9106,-0.910017 1.423614,-2.143583 1.427112,-3.431364l0,-59.511261c-0.003498,-1.287315 -0.516512,-2.520764 -1.427112,-3.431015c-0.910017,-0.91025 -2.143583,-1.423264 -3.430781,-1.426995l0,0z" opacity="0.1"/>
     <path stroke="null" id="svg_26" fill="black" d="m208.361448,213.7781l-33.257359,0c-7.510292,10.656817 -10.623705,23.798546 -8.692673,36.692163c1.931031,12.893559 8.757849,24.546556 19.060745,32.535584l22.889287,0c1.287199,-0.004081 2.520764,-0.517095 3.430781,-1.427112c0.9106,-0.910017 1.423614,-2.143583 1.427695,-3.431364l0,-59.511261c-0.004081,-1.287315 -0.517095,-2.520764 -1.427695,-3.431015c-0.910017,-0.91025 -2.143583,-1.423264 -3.430781,-1.426995l0,0z" opacity="0.2"/>
     <path stroke="null" id="svg_27" fill="black" d="m208.361215,213.7781l-33.257359,0c-6.469165,9.1724 -9.705584,20.235139 -9.200091,31.447761c0.505494,11.212855 4.72416,21.939512 11.992403,30.492855l30.465047,0c1.287432,-0.004081 2.520998,-0.517095 3.431015,-1.427112c0.9106,-0.910017 1.423614,-2.143583 1.427112,-3.431364l0,-52.22413c-0.003498,-1.287315 -0.516512,-2.520764 -1.427112,-3.431015c-0.910017,-0.91025 -2.143583,-1.423264 -3.431015,-1.426995z" opacity="0.2"/>
     <path stroke="null" id="svg_28" fill="black" d="m204.717649,213.7781l-29.613794,0c-6.469165,9.1724 -9.705584,20.235139 -9.200091,31.447761c0.505494,11.212855 4.72416,21.939512 11.992403,30.492855l26.821482,0c1.287315,-0.004081 2.520823,-0.517095 3.431073,-1.427112c0.91025,-0.910017 1.423381,-2.143583 1.42717,-3.431364l0,-52.22413c-0.003848,-1.287315 -0.51692,-2.520764 -1.42717,-3.431015c-0.910308,-0.91025 -2.143816,-1.423264 -3.431073,-1.426995z" opacity="0.2"/>
     <path stroke="null" id="svg_29" fill="#C43E1C" d="m156.13793,213.534198l48.580943,0c1.288481,0 2.524146,0.511848 3.435212,1.422914c0.911008,0.911066 1.422856,2.146731 1.422856,3.435212l0,48.581031c0,0.63777 -0.12563,1.26971 -0.369778,1.859093c-0.244148,0.589383 -0.601975,1.12455 -1.053078,1.575769c-0.451103,0.451219 -0.986678,0.809163 -1.576061,1.053428c-0.589441,0.243682 -1.221148,0.369603 -1.859151,0.369603l-48.580943,0c-1.288435,0 -2.524099,-0.511848 -3.435154,-1.423031c-0.911056,-0.911183 -1.422885,-2.146497 -1.422885,-3.434862l0,-48.581089c0,-1.288423 0.511828,-2.524087 1.422885,-3.435154c0.91106,-0.911066 2.146719,-1.422914 3.435154,-1.422914l0,0z"/>
     <path stroke="null" id="svg_30" fill="#F9F7F7" d="m180.555387,224.709205c3.583869,-0.241117 7.137075,0.79727 10.027093,2.930418c1.185412,1.057917 2.114609,2.371699 2.717167,3.841776c0.602617,1.470135 0.862913,3.058088 0.761068,4.643652c0.0397,2.057536 -0.561401,4.07648 -1.719996,5.777238c-1.180107,1.881304 -2.879233,3.38187 -4.892522,4.31987c-2.300868,1.067419 -4.815511,1.594424 -7.351433,1.540791l-6.956529,0l0,13.344195l-7.134859,0l0,-36.397938l14.550011,0zm-7.41521,17.045941l6.141128,0c1.94613,0.141953 3.87687,-0.433497 5.42763,-1.617743c0.616375,-0.396362 1.112949,-0.953332 1.436206,-1.610981c0.323315,-0.657649 0.461071,-1.391026 0.39846,-2.121138c0,-4.026111 -2.344299,-6.039166 -7.032956,-6.039166l-6.37041,0l-0.000058,11.389028z"/>
     <path stroke="null" id="svg_36" fill="#F9F7F7" d="m180.555388,224.709205c3.583869,-0.241116 7.137074,0.797271 10.027092,2.930418c1.185412,1.057917 2.114609,2.371699 2.717167,3.841776c0.602617,1.470135 0.862913,3.058088 0.761068,4.643651c0.039701,2.057536 -0.5614,4.07648 -1.719996,5.777238c-1.180107,1.881304 -2.879233,3.38187 -4.892521,4.31987c-2.300868,1.067419 -4.815512,1.594424 -7.351433,1.540791l-6.956529,0l0,13.344194l-7.134859,0l0,-36.397938l14.550011,0zm-7.41521,17.045941l6.141128,0c1.94613,0.141953 3.87687,-0.433497 5.42763,-1.617743c0.616374,-0.396362 1.112949,-0.953332 1.436206,-1.610981c0.323315,-0.657649 0.461071,-1.391026 0.39846,-2.121138c0,-4.026111 -2.344299,-6.039166 -7.032956,-6.039166l-6.37041,0l-0.000058,11.389028z"/>
    </g>
   </g>
   <path stroke="null" id="svg_35" fill="url(#svg_8)" d="m246.861007,195.822264c-1.864004,0.071816 -3.618541,0.60308 -5.262071,1.593777c-1.643531,0.990697 -3.055795,2.616913 -4.238335,4.878648l0.026211,-0.049352l-42.543686,83.630997c-1.674366,3.291686 -5.006137,5.184521 -8.458167,5.179124c-3.45203,0.005397 -6.78226,-1.887438 -8.456625,-5.179124l-38.549415,-75.778762c-0.952661,-1.87273 -1.22463,-3.913668 -0.907487,-5.83979c0.519577,-4.744297 4.534046,-8.435518 9.409286,-8.435518l49.341364,0c3.93923,0 7.315713,2.409637 8.741853,5.837508l2.012014,3.955634l-10.628984,20.876455l-5.955869,-11.70622l-28.378183,0l23.372046,45.944529l29.989028,-58.950371c1.859378,-3.655406 5.613595,-5.957535 9.714712,-5.957535l20.772308,0z" clip-rule="evenodd" fill-rule="evenodd"/>
  </g>
  <path stroke="null" id="svg_38" fill="#F9F7F7" d="m180.689899,224.688926c3.583869,-0.241116 7.137074,0.797271 10.027092,2.930418c1.185412,1.057917 2.114609,2.371699 2.717167,3.841776c0.602617,1.470135 0.862913,3.058088 0.761068,4.643651c0.039701,2.057536 -0.5614,4.07648 -1.719996,5.777238c-1.180107,1.881304 -2.879233,3.38187 -4.892521,4.31987c-2.300868,1.067419 -4.815512,1.594424 -7.351433,1.540791l-6.956529,0l0,13.344194l-7.134859,0l0,-36.397938l14.550011,0zm-7.41521,17.045941l6.141128,0c1.94613,0.141953 3.87687,-0.433497 5.42763,-1.617743c0.616374,-0.396362 1.112949,-0.953332 1.436206,-1.610981c0.323315,-0.657649 0.461071,-1.391026 0.39846,-2.121138c0,-4.026111 -2.344299,-6.039166 -7.032956,-6.039166l-6.37041,0l-0.000058,11.389028z"/>
 </g>
</svg>