<svg width="150" height="150" xmlns="http://www.w3.org/2000/svg">
 <!-- Created with Method Draw - http://github.com/duopixel/Method-Draw/ -->
 <g>
  <title>background</title>
  <rect x="-1" y="-1" width="152" height="152" id="canvas_background" fill="none"/>
  <g id="canvasGrid" display="none">
   <rect id="svg_1" width="100%" height="100%" x="0" y="0" stroke-width="0" fill="url(#gridpattern)"/>
  </g>
 </g>
 <g>
  <title>Layer 1</title>
  <defs>
   <linearGradient id="svg_10" x1="0.499995" y1="0" x2="0.499995" y2="1">
    <stop stop-color="#FF1C1F"/>
    <stop offset="1" stop-color="#FF4A04"/>
   </linearGradient>
   <linearGradient id="svg_9" x1="0.162978" y1="0.415971" x2="0.735471" y2="0.999911">
    <stop stop-color="#BD0000"/>
    <stop offset="0.770833" stop-color="#BD0000" stop-opacity="0"/>
   </linearGradient>
   <linearGradient id="svg_8" x1="0.499999" y1="0" x2="0.499999" y2="1">
    <stop stop-color="#FF1C1F"/>
    <stop offset="1" stop-color="#FF4A04"/>
   </linearGradient>
   <linearGradient id="svg_7" x1="0.500015" y1="0" x2="0.500015" y2="0.695796">
    <stop stop-color="#FF9825"/>
    <stop offset="1" stop-color="#FF9825" stop-opacity="0"/>
   </linearGradient>
  </defs>
  <g id="svg_34">
   <path fill-rule="evenodd" clip-rule="evenodd" d="m98.705256,99.463299l-0.04162,0c-0.04009,-0.00015 -0.08018,-0.0003 -0.12026,-0.00092c-0.00771,-0.00062 -0.01542,-0.00062 -0.02313,-0.00077l0.02313,0.00077c-3.39653,-0.04548 -6.6543,-1.92444 -8.30553,-5.16062c-0.00155,-0.0034 -0.00309,-0.00679 -0.00463,-0.01033l-13.13436,-25.81884l10.62898,-20.87623l10.95584,21.53842l23.37174,-45.94145l-30.51323,0.00016c-5.22662,0 -9.46495,-4.23803 -9.46495,-9.466l0,-0.03159c0,-5.2279 4.23833,-9.46594 9.46495,-9.46594l45.71511,0c5.22661,0 9.46494,4.23804 9.46494,9.46594l0,0.065c0.07247,1.5841 -0.25131,3.20831 -1.02065,4.72262l-38.56437,75.80791l-0.00617,0.01033c-1.64661,3.22878 -4.89358,5.10666 -8.2824,5.16031c-0.00771,-0.00046 -0.01388,-0.00031 -0.02159,-0.00016l0.02159,0.00016c-0.0478,0.00077 -0.09559,0.00108 -0.14339,0.00123z" fill="url(#svg_10)" id="svg_12" stroke="null"/>
   <path fill-rule="evenodd" clip-rule="evenodd" d="m93.173376,4.229959l39.07932,0l-10.29442,18.96353l-28.7849,0l0,-18.96353z" fill="url(#svg_9)" id="svg_13" stroke="null"/>
   <path fill-rule="evenodd" clip-rule="evenodd" d="m109.522336,4.229959c-1.864,0.07181 -3.61854,0.60308 -5.26053,1.59377c-1.57877,0.95108 -2.94324,2.48784 -4.09649,4.61029l-0.12642,0.23737l-27.13212,53.33576l-16.44764,-9.43904l22.57618,-44.38062c1.86092,-3.65541 5.6136,-5.95753 9.71472,-5.95753l20.7723,0z" fill="url(#svg_7)" id="svg_15" stroke="null"/>
   <g id="svg_31" stroke="null">
    <g id="svg_32" stroke="null">
     <path d="m79.436116,0.376169c-13.51652,0.03952 -26.46814,5.42646 -36.02577,14.98415c-9.55768,9.55762 -14.94462,22.50924 -14.98414,36.02577l64.62577,13.61585l-13.61586,-64.62577z" fill="#ED6C47" id="svg_22" stroke="null"/>
     <path d="m79.473426,0.376169c13.51268,0.04098 26.45987,5.42949 36.01126,14.98793c9.55139,9.55839 14.93104,22.50925 14.96252,36.02198l-25.50496,17.3358l-25.46882,-17.3358l0,-51.00991z" fill="#FF8F6B" id="svg_23" stroke="null"/>
     <path d="m79.436116,102.395999c13.51676,-0.03964 26.46803,-5.42628 36.02583,-14.98409c9.5578,-9.5578 14.94445,-22.50907 14.98409,-36.02582l-102.01984,0c0.03953,13.51675 5.42647,26.46802 14.98415,36.02582c9.55763,9.5578 22.50925,14.94445 36.02577,14.98409l0,0z" fill="#D35230" id="svg_24" stroke="null"/>
     <path opacity="0.1" d="m74.578806,18.593989l-34.10884,0c-8.32879,9.81361 -12.6128,22.42787 -11.98302,35.28371c0.62978,12.85625 6.12615,24.99136 15.37416,33.94404l30.7177,0c1.2872,-0.00408 2.52077,-0.51709 3.43078,-1.42711c0.9106,-0.91002 1.42362,-2.14358 1.42712,-3.43136l0,-59.51126c-0.0035,-1.28732 -0.51652,-2.52077 -1.42712,-3.43102c-0.91001,-0.91025 -2.14358,-1.42326 -3.43078,-1.427l0,0z" fill="black" id="svg_25" stroke="null"/>
     <path opacity="0.2" d="m70.935246,22.237559l-33.25736,0c-7.51029,10.65682 -10.62371,23.79855 -8.69267,36.69216c1.93103,12.89356 8.75784,24.54656 19.06074,32.53559l22.88929,0c1.2872,-0.00408 2.52076,-0.5171 3.43078,-1.42712c0.9106,-0.91001 1.42361,-2.14358 1.42769,-3.43136l0,-59.51126c-0.00408,-1.28731 -0.51709,-2.52076 -1.42769,-3.43101c-0.91002,-0.91025 -2.14358,-1.42327 -3.43078,-1.427l0,0z" fill="black" id="svg_26" stroke="null"/>
     <path opacity="0.2" d="m70.935006,22.237559l-33.25735,0c-6.46917,9.1724 -9.70559,20.23514 -9.2001,31.44776c0.5055,11.21286 4.72416,21.93951 11.99241,30.49286l30.46504,0c1.28744,-0.00408 2.521,-0.5171 3.43102,-1.42712c0.9106,-0.91001 1.42361,-2.14358 1.42711,-3.43136l0,-52.22413c-0.0035,-1.28731 -0.51651,-2.52076 -1.42711,-3.43101c-0.91002,-0.91025 -2.14358,-1.42327 -3.43102,-1.427z" fill="black" id="svg_27" stroke="null"/>
     <path opacity="0.2" d="m67.291446,22.237559l-29.61379,0c-6.46917,9.1724 -9.70559,20.23514 -9.2001,31.44776c0.5055,11.21286 4.72416,21.93951 11.99241,30.49286l26.82148,0c1.28731,-0.00408 2.52082,-0.5171 3.43107,-1.42712c0.91025,-0.91001 1.42338,-2.14358 1.42717,-3.43136l0,-52.22413c-0.00385,-1.28731 -0.51692,-2.52076 -1.42717,-3.43101c-0.91031,-0.91025 -2.14381,-1.42327 -3.43107,-1.427z" fill="black" id="svg_28" stroke="null"/>
     <path d="m18.711726,21.993659l48.58094,0c1.28848,0 2.52415,0.51185 3.43522,1.42291c0.911,0.91107 1.42285,2.14673 1.42285,3.43521l0,48.58104c0,0.63777 -0.12563,1.26971 -0.36978,1.85909c-0.24414,0.58938 -0.60197,1.12455 -1.05307,1.57577c-0.45111,0.45122 -0.98668,0.80916 -1.57607,1.05342c-0.58944,0.24369 -1.22114,0.36961 -1.85915,0.36961l-48.58094,0c-1.28843,0 -2.5241,-0.51185 -3.43515,-1.42303c-0.91106,-0.91119 -1.42289,-2.1465 -1.42289,-3.43487l0,-48.58108c0,-1.28843 0.51183,-2.52409 1.42289,-3.43516c0.91106,-0.91106 2.14671,-1.42291 3.43515,-1.42291l0,0z" fill="#C43E1C" id="svg_29" stroke="null"/>
     <path d="m43.129186,33.168659c3.58387,-0.24111 7.13707,0.79727 10.02709,2.93042c1.18541,1.05792 2.11461,2.3717 2.71717,3.84178c0.60261,1.47013 0.86291,3.05809 0.76106,4.64365c0.0397,2.05754 -0.5614,4.07648 -1.71999,5.77724c-1.18011,1.8813 -2.87923,3.38187 -4.89252,4.31987c-2.30087,1.06742 -4.81551,1.59442 -7.35144,1.54079l-6.95652,0l0,13.3442l-7.13486,0l0,-36.39794l14.55001,0l0,-0.00001zm-7.41521,17.04595l6.14113,0c1.94613,0.14195 3.87686,-0.4335 5.42762,-1.61775c0.61638,-0.39636 1.11295,-0.95333 1.43621,-1.61098c0.32332,-0.65765 0.46107,-1.39102 0.39846,-2.12114c0,-4.02611 -2.3443,-6.03916 -7.03296,-6.03916l-6.37041,0l-0.00005,11.38903z" fill="#F9F7F7" id="svg_30" stroke="null"/>
     <path d="m43.129186,33.168659c3.58387,-0.24111 7.13707,0.79728 10.02709,2.93042c1.18541,1.05792 2.11461,2.3717 2.71717,3.84178c0.60261,1.47013 0.86291,3.05809 0.76106,4.64365c0.03971,2.05754 -0.5614,4.07648 -1.71999,5.77724c-1.18011,1.8813 -2.87923,3.38187 -4.89252,4.31987c-2.30087,1.06742 -4.81551,1.59442 -7.35143,1.54079l-6.95653,0l0,13.34419l-7.13486,0l0,-36.39793l14.55001,0l0,-0.00001zm-7.41521,17.04595l6.14113,0c1.94613,0.14195 3.87687,-0.4335 5.42763,-1.61775c0.61637,-0.39636 1.11294,-0.95333 1.4362,-1.61098c0.32332,-0.65765 0.46107,-1.39102 0.39846,-2.12114c0,-4.02611 -2.3443,-6.03916 -7.03295,-6.03916l-6.37041,0l-0.00006,11.38903z" fill="#F9F7F7" id="svg_36" stroke="null"/>
    </g>
   </g>
   <path fill-rule="evenodd" clip-rule="evenodd" d="m109.434806,4.281719c-1.86401,0.07182 -3.61854,0.60308 -5.26207,1.59378c-1.64353,0.9907 -3.0558,2.61691 -4.23834,4.87865l0.02621,-0.04935l-42.54368,83.63099c-1.67437,3.29169 -5.00614,5.18453 -8.45817,5.17913c-3.45203,0.0054 -6.78226,-1.88744 -8.45663,-5.17913l-38.54941,-75.77876c-0.95266,-1.87273 -1.22463,-3.91367 -0.90749,-5.83979c0.51958,-4.74429 4.53405,-8.43552 9.40929,-8.43552l49.34136,0c3.93923,0 7.31571,2.40964 8.74185,5.83751l2.01202,3.95564l-10.62899,20.87645l-5.95586,-11.70622l-28.37819,0l23.37205,45.94453l29.98903,-58.95037c1.85937,-3.65541 5.61359,-5.95754 9.71471,-5.95754l20.77231,0z" fill="url(#svg_8)" id="svg_35" stroke="null"/>
  </g>
  <path d="m44.608819,33.148389c3.58387,-0.24112 7.13707,0.79727 10.02709,2.93041c1.18541,1.05792 2.11461,2.3717 2.71717,3.84178c0.60262,1.47014 0.86291,3.05809 0.76107,4.64365c0.0397,2.05754 -0.5614,4.07648 -1.72,5.77724c-1.18011,1.8813 -2.87923,3.38187 -4.89252,4.31987c-2.30087,1.06742 -4.81551,1.59442 -7.35143,1.54079l-6.95653,0l0,13.34419l-7.13486,0l0,-36.39793l14.55001,0zm-7.41521,17.04594l6.14113,0c1.94613,0.14195 3.87687,-0.4335 5.42763,-1.61775c0.61637,-0.39636 1.11295,-0.95333 1.4362,-1.61098c0.32332,-0.65765 0.46107,-1.39102 0.39846,-2.12113c0,-4.02612 -2.3443,-6.03917 -7.03295,-6.03917l-6.37041,0l-0.00006,11.38903z" fill="#F9F7F7" id="svg_38" stroke="null"/>
 </g>
</svg>