<svg width="580" height="400" xmlns="http://www.w3.org/2000/svg">
 <!-- Created with Method Draw - http://github.com/duopixel/Method-Draw/ -->

 <g>
  <title>background</title>
  <rect fill="none" id="canvas_background" height="402" width="582" y="-1" x="-1"/>
  <g display="none" overflow="visible" y="0" x="0" height="100%" width="100%" id="canvasGrid">
   <rect fill="url(#gridpattern)" stroke-width="0" y="0" x="0" height="100%" width="100%"/>
  </g>
 </g>
 <g>
  <title>Layer 1</title>
  <defs>
   <linearGradient y2="1" x2="0.499995" y1="0" x1="0.499995" id="svg_10">
    <stop stop-color="#FF1C1F"/>
    <stop stop-color="#FF4A04" offset="1"/>
   </linearGradient>
   <linearGradient y2="0.999911" x2="0.735471" y1="0.415971" x1="0.162978" id="svg_9">
    <stop stop-color="#BD0000"/>
    <stop stop-opacity="0" stop-color="#BD0000" offset="0.770833"/>
   </linearGradient>
   <linearGradient y2="1" x2="0.499999" y1="0" x1="0.499999" id="svg_8">
    <stop stop-color="#FF1C1F"/>
    <stop stop-color="#FF4A04" offset="1"/>
   </linearGradient>
   <linearGradient y2="0.695796" x2="0.500015" y1="0" x1="0.500015" id="svg_7">
    <stop stop-color="#FF9825"/>
    <stop stop-opacity="0" stop-color="#FF9825" offset="1"/>
   </linearGradient>
  </defs>
  <g id="svg_18">
   <path id="svg_12" fill="url(#svg_10)" d="m301.638256,189.66669l-0.01937,0c-0.018652,-0.000072 -0.037305,-0.000143 -0.055957,-0.00043c-0.003587,-0.000287 -0.007174,-0.000287 -0.010761,-0.000359l0.010761,0.000359c-1.580432,-0.021163 -3.096297,-0.895458 -3.864632,-2.40128c-0.000717,-0.001578 -0.001435,-0.003157 -0.002152,-0.004807l-6.111528,-12.013719l4.945754,-9.713879l5.097842,10.022002l10.875062,-21.376933l-14.198058,0.000072c-2.431985,0 -4.404117,-1.971988 -4.404117,-4.404605l0,-0.0147c0,-2.432588 1.972132,-4.404583 4.404117,-4.404583l21.271619,0c2.431985,0 4.404117,1.971996 4.404117,4.404583l0,0.030246c0.033718,0.737092 -0.116936,1.492851 -0.474919,2.197474l-17.944319,35.274042l-0.00287,0.004807c-0.766183,1.502378 -2.277027,2.376171 -3.853871,2.401137c-0.003587,-0.000215 -0.006457,-0.000143 -0.010044,-0.000072l0.010044,0.000072c-0.022239,0.000359 -0.044479,0.000502 -0.066718,0.000574z" clip-rule="evenodd" fill-rule="evenodd"/>
   <path id="svg_13" fill="url(#svg_9)" d="m299.064226,145.353828l18.183931,0l-4.790078,8.823887l-13.393853,0l0,-8.823887z" clip-rule="evenodd" fill-rule="evenodd"/>
   <path id="svg_14" fill="url(#svg_8)" d="m306.672967,145.353828c-0.867336,0.033416 -1.683737,0.280618 -2.448485,0.741598c-0.764748,0.46098 -1.421886,1.217671 -1.972132,2.270075l0.012196,-0.022964l-19.795928,38.914193c-0.779096,1.531648 -2.329397,2.4124 -3.935655,2.409889c-1.606258,0.002511 -3.155841,-0.878241 -3.934937,-2.409889l-17.93736,-35.260483c-0.443281,-0.871397 -0.569831,-1.821062 -0.422261,-2.717302c0.241764,-2.207561 2.109729,-3.925116 4.378219,-3.925116l22.958943,0c1.832956,0 3.404062,1.121224 4.067656,2.71624l0.936207,1.840589l-4.945754,9.713987l-2.771315,-5.447001l-13.204603,0l10.875206,21.378368l13.954142,-27.430094c0.865184,-1.70089 2.612052,-2.77209 4.520336,-2.77209l9.665526,0z" clip-rule="evenodd" fill-rule="evenodd"/>
   <path id="svg_15" fill="url(#svg_7)" d="m306.671532,145.353828c-0.867336,0.033416 -1.683737,0.280618 -2.447768,0.741598c-0.734617,0.442542 -1.369516,1.157611 -1.906131,2.145204l-0.058827,0.110451l-12.6248,24.817568l-7.65322,-4.392065l10.504884,-20.650666c0.865901,-1.70089 2.612052,-2.77209 4.520336,-2.77209l9.665526,0z" clip-rule="evenodd" fill-rule="evenodd"/>
  </g>
 </g>
</svg>